<?xml version="1.0" standalone="no"?><!DOCTYPE svg PUBLIC "-//W3C//DTD SVG 1.1//EN" "http://www.w3.org/Graphics/SVG/1.1/DTD/svg11.dtd"><svg t="1681368978845" class="icon" viewBox="0 0 1024 1024" version="1.1" xmlns="http://www.w3.org/2000/svg" p-id="1530" xmlns:xlink="http://www.w3.org/1999/xlink" width="200" height="200"><path d="M576 224a32 32 0 0 0 0 64v-64zM768 256h32a32 32 0 0 0-32-32V256z m-32 192a32 32 0 0 0 64 0h-64zM256 768h-32c0 17.664 14.336 32 32 32V768z m32-192a32 32 0 0 0-64 0h64z m160 224a32 32 0 0 0 0-64v64z m128-512H768v-64h-192v64zM736 256v192h64V256h-64z m9.386667-22.613333l-512 512 45.226666 45.226666 512-512-45.226666-45.226666zM288 768v-192h-64V768h64z m-32 32h192v-64H256v64z" p-id="1531"></path></svg>