<?xml version="1.0" standalone="no"?><!DOCTYPE svg PUBLIC "-//W3C//DTD SVG 1.1//EN" "http://www.w3.org/Graphics/SVG/1.1/DTD/svg11.dtd"><svg t="1681368984589" class="icon" viewBox="0 0 1024 1024" version="1.1" xmlns="http://www.w3.org/2000/svg" p-id="1673" xmlns:xlink="http://www.w3.org/1999/xlink" width="200" height="200"><path d="M875.946667 193.28a32 32 0 0 0-45.226667-45.226667l45.226667 45.226667zM148.053333 830.72a32 32 0 1 0 45.226667 45.226667l-45.226667-45.226667zM554.666667 469.333333h-32c0 17.664 14.336 32 32 32V469.333333z m-85.333334 85.333334h32a32 32 0 0 0-32-32V554.666667z m298.666667-53.333334a32 32 0 0 0 0-64v64zM586.666667 256a32 32 0 0 0-64 0h64z m-149.333334 512a32 32 0 0 0 64 0h-64zM256 522.666667a32 32 0 0 0 0 64v-64z m574.72-374.613334l-298.666667 298.666667 45.226667 45.226667 298.666667-298.666667-45.226667-45.226667z m-384 384l-298.666667 298.666667 45.226667 45.226667 298.666667-298.666667-45.226667-45.226667z m107.946667-30.72h213.333333v-64h-213.333333v64z m32-32V256h-64v213.333333h64z m-149.333334 85.333334v213.333333h64v-213.333333h-64z m32-32H256v64h213.333333v-64z" p-id="1674"></path></svg>